<svg width="26" height="32" viewBox="0 0 26 32" fill="none" xmlns="http://www.w3.org/2000/svg">
<path d="M22.4997 6.49996H19.333C19.333 3.00079 16.4988 0.166626 12.9997 0.166626C9.50051 0.166626 6.66634 3.00079 6.66634 6.49996H3.49967C1.75801 6.49996 0.333008 7.92496 0.333008 9.66663V28.6666C0.333008 30.4083 1.75801 31.8333 3.49967 31.8333H22.4997C24.2413 31.8333 25.6663 30.4083 25.6663 28.6666V9.66663C25.6663 7.92496 24.2413 6.49996 22.4997 6.49996ZM12.9997 3.33329C14.7413 3.33329 16.1663 4.75829 16.1663 6.49996H9.83301C9.83301 4.75829 11.258 3.33329 12.9997 3.33329ZM22.4997 28.6666H3.49967V9.66663H6.66634V12.8333C6.66634 13.7041 7.37884 14.4166 8.24967 14.4166C9.12051 14.4166 9.83301 13.7041 9.83301 12.8333V9.66663H16.1663V12.8333C16.1663 13.7041 16.8788 14.4166 17.7497 14.4166C18.6205 14.4166 19.333 13.7041 19.333 12.8333V9.66663H22.4997V28.6666Z" fill="#002F52"/>
</svg>
